<svg width="139" height="31" viewBox="0 0 139 31" fill="none" xmlns="http://www.w3.org/2000/svg">
<path d="M16.82 26.84C17.9667 26.84 18.9733 26.62 19.84 26.18C20.72 25.74 21.4067 25.1067 21.9 24.28C22.3933 23.4533 22.64 22.46 22.64 21.3C22.64 20.14 22.3733 19.1733 21.84 18.4C21.32 17.6267 20.62 17.0467 19.74 16.66C18.86 16.2733 17.8867 16.08 16.82 16.08H11.16C10.7867 16.08 10.5333 16.1533 10.4 16.3C10.28 16.4333 10.22 16.7 10.22 17.1V25.98C10.22 26.3267 10.28 26.56 10.4 26.68C10.5333 26.7867 10.78 26.84 11.14 26.84H16.82ZM11.26 12.92H16.3C17.26 12.92 18.1467 12.7533 18.96 12.42C19.7867 12.0733 20.4533 11.54 20.96 10.82C21.4667 10.0867 21.72 9.14 21.72 7.98C21.72 6.82 21.4733 5.88667 20.98 5.18C20.4867 4.47333 19.8333 3.96 19.02 3.64C18.2067 3.32 17.3 3.16 16.3 3.16H11.02C10.7133 3.16 10.5 3.22 10.38 3.34C10.2733 3.44667 10.22 3.66 10.22 3.98V12C10.22 12.4267 10.2867 12.6867 10.42 12.78C10.5533 12.8733 10.8333 12.92 11.26 12.92ZM17.34 30H1.2C0.853333 30 0.626667 29.9467 0.52 29.84C0.413333 29.7333 0.36 29.5067 0.36 29.16V27.5C0.36 27.2067 0.413333 27.0267 0.52 26.96C0.626667 26.88 0.813333 26.84 1.08 26.84H3.9C4.23333 26.84 4.46 26.7933 4.58 26.7C4.7 26.5933 4.76 26.3733 4.76 26.04V4C4.76 3.64 4.7 3.41333 4.58 3.32C4.47333 3.21333 4.24 3.16 3.88 3.16H1.18C0.833333 3.16 0.606667 3.12 0.5 3.04C0.406667 2.96 0.36 2.74666 0.36 2.4V0.76C0.36 0.453333 0.406667 0.253332 0.5 0.159998C0.606667 0.0533311 0.806667 -2.38419e-06 1.1 -2.38419e-06H16.42C18.7533 -2.38419e-06 20.74 0.273331 22.38 0.819998C24.02 1.35333 25.26 2.18667 26.1 3.32C26.9533 4.45333 27.38 5.90667 27.38 7.68C27.38 9.38667 26.9733 10.7667 26.16 11.82C25.3467 12.86 24.1467 13.6067 22.56 14.06C22.24 14.1533 22.0867 14.2667 22.1 14.4C22.1133 14.5333 22.2667 14.64 22.56 14.72C24.5067 15.1867 26.0133 15.98 27.08 17.1C28.16 18.22 28.7 19.72 28.7 21.6C28.7 23.64 28.2667 25.2733 27.4 26.5C26.5467 27.7267 25.2733 28.62 23.58 29.18C21.8867 29.7267 19.8067 30 17.34 30ZM35.1928 12.78C35.1928 12.46 35.1528 12.2533 35.0728 12.16C34.9928 12.0533 34.7928 12 34.4728 12H32.2128C31.9195 12 31.7395 11.9533 31.6728 11.86C31.6195 11.7667 31.5928 11.5733 31.5928 11.28V9.92C31.5928 9.64 31.6328 9.45333 31.7128 9.36C31.7928 9.25333 31.9728 9.2 32.2528 9.2H39.2928C39.5328 9.2 39.7061 9.23333 39.8128 9.3C39.9195 9.36666 39.9728 9.52667 39.9728 9.78V11.74C39.9728 12.1133 39.9995 12.3267 40.0528 12.38C40.1195 12.4333 40.2328 12.3067 40.3928 12C40.9261 11.04 41.6528 10.2467 42.5728 9.62C43.4928 8.99333 44.6728 8.68 46.1128 8.68C47.4728 8.68 48.6395 9.05333 49.6128 9.8C50.5995 10.5333 51.0928 11.5733 51.0928 12.92C51.0928 13.52 50.9661 14.1 50.7128 14.66C50.4595 15.2067 50.0928 15.66 49.6128 16.02C49.1328 16.38 48.5595 16.56 47.8928 16.56C47.0395 16.56 46.3195 16.3333 45.7328 15.88C45.1461 15.4267 44.8528 14.8333 44.8528 14.1C44.8528 13.58 44.9395 13.18 45.1128 12.9C45.2861 12.6067 45.4528 12.38 45.6128 12.22C45.7861 12.0467 45.8728 11.88 45.8728 11.72C45.8728 11.5467 45.7995 11.4133 45.6528 11.32C45.5195 11.2267 45.2528 11.18 44.8528 11.18C44.0261 11.18 43.2595 11.54 42.5528 12.26C41.8461 12.9667 41.2795 13.9133 40.8528 15.1C40.4261 16.2733 40.2128 17.5467 40.2128 18.92V26.42C40.2128 26.7267 40.2461 26.9333 40.3128 27.04C40.3928 27.1467 40.5928 27.2 40.9128 27.2H43.2928C43.5461 27.2 43.6928 27.2467 43.7328 27.34C43.7861 27.4333 43.8128 27.6133 43.8128 27.88V29.32C43.8128 29.5867 43.7795 29.7667 43.7128 29.86C43.6595 29.9533 43.5128 30 43.2728 30H32.2328C32.0195 30 31.8595 29.9667 31.7528 29.9C31.6461 29.8333 31.5928 29.6933 31.5928 29.48V27.78C31.5928 27.5267 31.6328 27.3667 31.7128 27.3C31.8061 27.2333 31.9728 27.2 32.2128 27.2H34.3328C34.6528 27.2 34.8728 27.16 34.9928 27.08C35.1261 27 35.1928 26.8067 35.1928 26.5V12.78ZM55.8009 23.96V12.7C55.8009 12.4333 55.7609 12.2533 55.6809 12.16C55.6143 12.0533 55.4543 12 55.2009 12H52.9609C52.6809 12 52.4809 11.9667 52.3609 11.9C52.2543 11.8333 52.2009 11.66 52.2009 11.38V9.96C52.2009 9.64 52.2409 9.43333 52.3209 9.34C52.4143 9.24667 52.6143 9.2 52.9209 9.2H60.0609C60.3809 9.2 60.5876 9.23333 60.6809 9.3C60.7876 9.36666 60.8409 9.55333 60.8409 9.86V23.46C60.8409 24.82 61.0943 25.8867 61.6009 26.66C62.1209 27.42 62.9343 27.8 64.0409 27.8C65.1076 27.8 66.0609 27.48 66.9009 26.84C67.7409 26.2 68.4009 25.3333 68.8809 24.24C69.3609 23.1333 69.6009 21.8933 69.6009 20.52V12.72C69.6009 12.4133 69.5409 12.22 69.4209 12.14C69.3143 12.0467 69.1143 12 68.8209 12H66.8609C66.6476 12 66.4876 11.98 66.3809 11.94C66.2876 11.8867 66.2409 11.7533 66.2409 11.54V9.84C66.2409 9.58667 66.2743 9.42 66.3409 9.34C66.4076 9.24667 66.5543 9.2 66.7809 9.2H74.1009C74.3409 9.2 74.4876 9.24667 74.5409 9.34C74.6076 9.43333 74.6409 9.6 74.6409 9.84V26.48C74.6409 26.8 74.6809 27 74.7609 27.08C74.8543 27.16 75.0676 27.2 75.4009 27.2H77.6009C77.8009 27.2 77.9543 27.2333 78.0609 27.3C78.1809 27.3667 78.2409 27.5067 78.2409 27.72V29.3C78.2409 29.58 78.2076 29.7667 78.1409 29.86C78.0876 29.9533 77.9276 30 77.6609 30H70.5609C70.2409 30 70.0409 29.9467 69.9609 29.84C69.8809 29.7333 69.8409 29.52 69.8409 29.2V27.12C69.8409 26.9333 69.7876 26.8067 69.6809 26.74C69.5743 26.6733 69.4409 26.7733 69.2809 27.04C68.6409 28.0667 67.7876 28.9067 66.7209 29.56C65.6543 30.2 64.2543 30.52 62.5209 30.52C60.8676 30.52 59.5476 30.2733 58.5609 29.78C57.5876 29.2733 56.8809 28.5333 56.4409 27.56C56.0143 26.5867 55.8009 25.3867 55.8009 23.96ZM80.6163 29.36V27.78C80.6163 27.5667 80.6496 27.42 80.7163 27.34C80.7963 27.2467 80.9496 27.2 81.1763 27.2H83.1563C83.4896 27.2 83.7029 27.1533 83.7963 27.06C83.8896 26.9667 83.9363 26.7533 83.9363 26.42V12.72C83.9363 12.3867 83.8763 12.1867 83.7563 12.12C83.6363 12.04 83.4163 12 83.0963 12H81.4963C81.1496 12 80.9163 11.96 80.7963 11.88C80.6763 11.8 80.6163 11.5933 80.6163 11.26V10.08C80.6163 9.72 80.6629 9.48667 80.7563 9.38C80.8629 9.26 81.0896 9.2 81.4363 9.2H87.8763C88.1829 9.2 88.3963 9.24 88.5163 9.32C88.6496 9.38667 88.7163 9.58 88.7163 9.9V10.94C88.7163 11.5 88.7496 11.86 88.8163 12.02C88.8829 12.18 88.9763 12.2067 89.0963 12.1C89.2163 11.98 89.3629 11.7933 89.5363 11.54C90.1363 10.7 90.9096 10.0133 91.8563 9.48C92.8163 8.94667 93.9763 8.68 95.3363 8.68C96.7763 8.68 97.9029 8.93333 98.7163 9.44C99.5296 9.94667 100.19 10.64 100.696 11.52C100.923 11.9067 101.11 12.08 101.256 12.04C101.416 12 101.61 11.8467 101.836 11.58C102.543 10.7667 103.376 10.08 104.336 9.52C105.296 8.96 106.47 8.68 107.856 8.68C110.07 8.68 111.65 9.24 112.596 10.36C113.543 11.4667 114.016 13.0933 114.016 15.24V26.36C114.016 26.72 114.063 26.9533 114.156 27.06C114.263 27.1533 114.503 27.2 114.876 27.2H116.796C117.023 27.2 117.176 27.2467 117.256 27.34C117.336 27.42 117.376 27.5867 117.376 27.84V29.04C117.376 29.4533 117.323 29.72 117.216 29.84C117.11 29.9467 116.856 30 116.456 30H106.836C106.45 30 106.183 29.9533 106.036 29.86C105.903 29.7667 105.836 29.52 105.836 29.12V28.02C105.836 27.7 105.876 27.4867 105.956 27.38C106.036 27.26 106.23 27.2 106.536 27.2H108.156C108.516 27.2 108.743 27.16 108.836 27.08C108.93 26.9867 108.976 26.7667 108.976 26.42V15.74C108.976 14.38 108.776 13.3667 108.376 12.7C107.99 12.02 107.31 11.68 106.336 11.68C105.216 11.68 104.296 11.98 103.576 12.58C102.87 13.1667 102.343 13.9867 101.996 15.04C101.663 16.0933 101.496 17.3067 101.496 18.68V26.42C101.496 26.74 101.556 26.9533 101.676 27.06C101.796 27.1533 102.016 27.2 102.336 27.2H103.496C103.776 27.2 103.976 27.2333 104.096 27.3C104.23 27.3533 104.296 27.5333 104.296 27.84V29.16C104.296 29.5067 104.25 29.7333 104.156 29.84C104.063 29.9467 103.83 30 103.456 30H94.4363C94.1296 30 93.9229 29.96 93.8163 29.88C93.7229 29.7867 93.6763 29.58 93.6763 29.26V28.04C93.6763 27.6933 93.7229 27.4667 93.8163 27.36C93.9096 27.2533 94.1296 27.2 94.4763 27.2H95.6763C96.0229 27.2 96.2363 27.1533 96.3163 27.06C96.4096 26.9533 96.4563 26.7333 96.4563 26.4V15.74C96.4563 14.38 96.2563 13.3667 95.8563 12.7C95.4696 12.02 94.7896 11.68 93.8163 11.68C92.7896 11.68 91.9096 11.98 91.1763 12.58C90.4563 13.1667 89.9029 13.9867 89.5163 15.04C89.1429 16.0933 88.9563 17.3067 88.9563 18.68V26.34C88.9563 26.74 88.9896 26.9867 89.0563 27.08C89.1363 27.16 89.3696 27.2 89.7563 27.2H91.4163C91.6963 27.2 91.8829 27.24 91.9763 27.32C92.0696 27.4 92.1163 27.5867 92.1163 27.88V29.26C92.1163 29.4733 92.0829 29.6533 92.0163 29.8C91.9496 29.9333 91.7963 30 91.5563 30H81.2963C81.0429 30 80.8629 29.9667 80.7563 29.9C80.6629 29.82 80.6163 29.64 80.6163 29.36ZM118.998 20C118.998 17.8667 119.378 15.9467 120.138 14.24C120.911 12.5333 122.064 11.18 123.598 10.18C125.144 9.18 127.071 8.68 129.378 8.68C130.871 8.68 132.144 8.9 133.198 9.34C134.264 9.76667 135.151 10.3533 135.858 11.1C136.578 11.8467 137.138 12.68 137.537 13.6C137.951 14.52 138.244 15.48 138.418 16.48C138.591 17.4667 138.678 18.42 138.678 19.34C138.678 19.62 138.631 19.8 138.538 19.88C138.444 19.9467 138.258 19.98 137.978 19.98H125.098C124.858 19.98 124.698 20.02 124.618 20.1C124.538 20.18 124.498 20.3333 124.498 20.56C124.524 21.88 124.704 23.1 125.038 24.22C125.384 25.3267 125.938 26.22 126.698 26.9C127.458 27.58 128.458 27.92 129.698 27.92C131.098 27.92 132.258 27.5267 133.178 26.74C134.111 25.9533 134.831 24.8933 135.338 23.56C135.404 23.4133 135.464 23.3 135.518 23.22C135.584 23.1267 135.724 23.08 135.938 23.08H138.018C138.244 23.08 138.384 23.1133 138.438 23.18C138.504 23.2467 138.518 23.36 138.478 23.52C138.091 24.9867 137.484 26.24 136.658 27.28C135.831 28.32 134.784 29.12 133.518 29.68C132.264 30.24 130.791 30.52 129.098 30.52C126.884 30.52 125.024 30.0333 123.518 29.06C122.024 28.0867 120.898 26.8 120.138 25.2C119.378 23.6 118.998 21.8667 118.998 20ZM125.138 17.54H132.818C133.084 17.54 133.244 17.52 133.298 17.48C133.364 17.44 133.391 17.3333 133.378 17.16C133.364 16.52 133.278 15.8533 133.118 15.16C132.958 14.4667 132.711 13.8133 132.378 13.2C132.044 12.5733 131.624 12.0667 131.118 11.68C130.611 11.2933 130.004 11.1 129.298 11.1C128.258 11.1 127.391 11.3933 126.698 11.98C126.004 12.5533 125.484 13.2867 125.138 14.18C124.791 15.0733 124.604 16 124.578 16.96C124.564 17.2 124.584 17.36 124.638 17.44C124.691 17.5067 124.858 17.54 125.138 17.54Z" fill="#090F15"/>
</svg>
