<svg width="86" height="83" viewBox="0 0 86 83" fill="none" xmlns="http://www.w3.org/2000/svg">
<circle cx="43" cy="42" r="39" fill="#F3F3F3"/>
<path d="M62 67.3694C55.9408 71.8392 48.48 74.1752 40.8556 73.9898C33.2312 73.8043 25.9018 71.1086 20.0836 66.35C20.0836 66.35 17.6455 62.198 20.0836 60.231C22.5218 58.264 25.391 69.6726 37.2134 63.7716C49.0359 57.8705 43.4097 74.7868 52.7049 69.2792C62 63.7716 62 67.3694 62 67.3694Z" fill="#72471A"/>
<path d="M75 54.5994C72.1778 60.8101 67.7696 66.0907 62.259 69.862C56.7483 73.6333 50.348 75.7497 43.7598 75.9791C37.1717 76.2086 30.6501 74.5422 24.9103 71.1627C19.1706 67.7833 14.4342 62.8212 11.2207 56.8207C11.2207 56.8207 7.61614 49.3531 12.7951 48.161C23.4 45.72 21.8486 72.1808 50.8785 49.9864C57.4446 44.9663 55.8844 63.9193 62.259 61.8523C68.7379 59.7515 75 54.5994 75 54.5994Z" fill="url(#paint0_linear_55_1952)"/>
<path d="M76 52.2593C73.8768 59.0176 69.7016 64.9394 64.0595 69.1951C58.4173 73.4508 51.591 75.827 44.5368 75.9909C37.4827 76.1548 30.5542 74.0981 24.7222 70.109C18.8902 66.1199 14.4468 60.3982 12.0148 53.7457C12.0148 53.7457 11.0499 62.4682 24.7222 57.3637C38.3944 52.2593 23.9621 46.182 34.6832 42.4547C45.4043 38.7274 54.5193 59.3502 61.4855 52.2593C76 37.485 76 52.2593 76 52.2593Z" fill="url(#paint1_linear_55_1952)"/>
<path d="M78 41.8234C78 46.3116 77.0947 50.7557 75.3358 54.9022C73.5769 59.0487 70.9988 62.8163 67.7487 65.9899C64.4987 69.1635 60.6403 71.6809 56.3939 73.3985C52.1475 75.116 47.5963 76 43 76C38.4037 76 33.8525 75.116 29.6061 73.3985C25.3597 71.6809 21.5013 69.1635 18.2513 65.9899C15.0012 62.8163 12.4231 59.0487 10.6642 54.9022C8.9053 50.7557 8 46.3116 8 41.8234C8 41.8234 10.9878 23.3263 27.6341 47.2416C34.8868 57.6613 53.6842 44.8184 60.0732 49.7423C69.4634 56.9793 52.8532 56.7967 60.0732 58.9117C72.8781 62.6627 78 41.8234 78 41.8234Z" fill="#3D1F12"/>
<defs>
<linearGradient id="paint0_linear_55_1952" x1="12" y1="87" x2="63" y2="38.5" gradientUnits="userSpaceOnUse">
<stop stop-color="#72471A"/>
<stop offset="1" stop-color="#D88731"/>
</linearGradient>
<linearGradient id="paint1_linear_55_1952" x1="51.5" y1="72" x2="37.5" y2="32" gradientUnits="userSpaceOnUse">
<stop stop-color="#72471A"/>
<stop offset="1" stop-color="#D88731"/>
</linearGradient>
</defs>
</svg>
