<svg width="86" height="83" viewBox="0 0 86 83" fill="none" xmlns="http://www.w3.org/2000/svg">
<circle cx="43" cy="42" r="39" fill="#F3F3F3"/>
<path d="M62 67.3694C55.9408 71.8392 48.48 74.1752 40.8556 73.9898C33.2312 73.8043 25.9018 71.1086 20.0836 66.35C20.0836 66.35 17.6455 62.198 20.0836 60.231C22.5218 58.264 25.391 69.6726 37.2134 63.7716C49.0359 57.8705 43.4097 74.7868 52.7049 69.2792C62 63.7716 62 67.3694 62 67.3694Z" fill="#72471A"/>
<path d="M75 54.5994C72.1778 60.8101 67.7696 66.0907 62.259 69.862C56.7483 73.6333 50.348 75.7497 43.7598 75.9791C37.1717 76.2086 30.6501 74.5422 24.9103 71.1627C19.1706 67.7833 14.4342 62.8212 11.2207 56.8207C11.2207 56.8207 7.61614 49.3531 12.7951 48.161C23.4 45.72 21.8486 72.1808 50.8785 49.9864C57.4446 44.9663 55.8844 63.9193 62.259 61.8523C68.7379 59.7515 75 54.5994 75 54.5994Z" fill="url(#paint0_linear_55_1946)"/>
<path d="M76 52.2593C73.8768 59.0176 69.7016 64.9394 64.0595 69.1951C58.4173 73.4508 51.591 75.827 44.5368 75.9909C37.4827 76.1548 30.5542 74.0981 24.7222 70.109C18.8902 66.1199 14.4468 60.3982 12.0148 53.7457C12.0148 53.7457 11.0499 62.4682 24.7222 57.3637C38.3944 52.2593 23.9621 46.182 34.6832 42.4547C45.4043 38.7274 54.5193 59.3502 61.4855 52.2593C76 37.485 76 52.2593 76 52.2593Z" fill="#3D1F12"/>
<defs>
<linearGradient id="paint0_linear_55_1946" x1="21" y1="70" x2="53.5" y2="48" gradientUnits="userSpaceOnUse">
<stop stop-color="#72471A"/>
<stop offset="1" stop-color="#D88731"/>
</linearGradient>
</defs>
</svg>
