<svg width="86" height="83" viewBox="0 0 86 83" fill="none" xmlns="http://www.w3.org/2000/svg">
<path d="M75 54.5994C72.1778 60.8101 67.7696 66.0907 62.259 69.862C56.7483 73.6333 50.348 75.7497 43.7598 75.9791C37.1717 76.2086 30.6501 74.5422 24.9103 71.1627C19.1706 67.7833 14.4342 62.8212 11.2207 56.8207C11.2207 56.8207 7.61614 49.3531 12.7951 48.161C23.4 45.72 21.8486 72.1808 50.8785 49.9864C57.4446 44.9663 55.8844 63.9193 62.259 61.8523C68.7379 59.7515 75 54.5994 75 54.5994Z" fill="#3D1F12"/>
<circle cx="43" cy="42" r="39" fill="#F3F3F3"/>
<path d="M62 67.3694C55.9408 71.8392 48.48 74.1752 40.8556 73.9898C33.2312 73.8043 25.9018 71.1086 20.0836 66.35C20.0836 66.35 17.6455 62.198 20.0836 60.231C22.5218 58.264 25.391 69.6726 37.2134 63.7716C49.0359 57.8705 43.4097 74.7868 52.7049 69.2792C62 63.7716 62 67.3694 62 67.3694Z" fill="#72471A"/>
</svg>
